<svg xmlns="http://www.w3.org/2000/svg" width="156" height="72" viewBox="0 0 156 72">
  <g fill="none" fill-rule="evenodd">
    <path d="M0-1h156v72H0z"/>
    <path fill="#000" fill-rule="nonzero" d="M72.286137 47.62043h-4.359765l-3.380084-13.580396h-.056303L61.164327 47.62043h-4.442343L51.44072 27.670234h4.38604l3.156746 13.580395h.056303l3.46454-13.5804h4.10827l3.41011 13.74743h.0563l3.26748-13.74743h4.30346l-5.36384 19.9502zm5.311293-10.00325c.223337-3.687876 3.548995-4.832713 6.78832-4.832713 2.878985 0 6.343524.64186 6.343524 4.108275v7.514636c0 1.313747.138882 2.627494.502978 3.214927h-4.02382c-.138883-.446674-.25149-.923376-.277765-1.396325-1.25932 1.313747-3.07417 1.786696-4.862742 1.786696-2.7645 0-4.91717-1.368174-4.91717-4.329736.056305-6.56686 9.779912-3.046017 9.611002-6.28722 0-1.675966-1.17299-1.955607-2.569315-1.955607-1.537084 0-2.486736.613708-2.625618 2.178944H77.59743v-.001877zm9.16245 2.93341c-.67001.587433-2.066337.615585-3.29563.838922-1.22929.223337-2.347853.668135-2.347853 2.12264 0 1.454507 1.144837 1.843 2.430432 1.843 3.10044 0 3.21305-2.430432 3.21305-3.325657V40.55059zm11.626665-7.375753h2.90526v2.65377h-2.90526v7.152416c0 1.340023.334067 1.675967 1.675966 1.675967.44668 0 .86708-.028152 1.2293-.11073v3.100444c-.67001.11073-1.53521.13888-2.31782.13888-2.46046 0-4.55495-.52925-4.55495-3.436387v-8.52059h-2.40228v-2.65377h2.40228v-4.331613h3.96752v4.331613zm8.017613 9.75176c0 1.704118 1.508933 2.430432 3.046017 2.430432 1.118562 0 2.599343-.44668 2.599343-1.843 0-1.20114-1.675966-1.6497-4.498646-2.23337-2.319703-.53301-4.581225-1.28748-4.581225-3.85679 0-3.68976 3.1849-4.63941 6.285343-4.63941 3.128595 0 6.062006 1.06226 6.371675 4.61125h-3.772332c-.11073-1.53709-1.285596-1.95561-2.710073-1.95561-.895225 0-2.207096.13888-2.207096 1.34002 0 1.424473 2.2634 1.61966 4.498646 2.15267 2.319703.52925 4.581225 1.36817 4.581225 4.05009 0 3.798606-3.32378 5.0279-6.593135 5.0279-3.351933 0-6.64944-1.257446-6.78832-5.084204h3.768578zm18.414985-10.14213c4.553073 0 7.486484 3.017865 7.486484 7.627242 0 4.5831-2.93341 7.59909-7.486484 7.59909-4.526798 0-7.460208-3.01599-7.460208-7.59909 0-4.61126 2.93341-7.62725 7.460208-7.62725zm0 12.238495c2.710073 0 3.520843-2.29155 3.520843-4.611253 0-2.31971-.81077-4.63941-3.520843-4.63941-2.683798 0-3.49269 2.3197-3.49269 4.6394s.808892 4.61125 3.49269 4.61125zm9.387664-11.848125h3.772332v2.01191h.08445c1.00408-1.64969 2.73635-2.40228 4.41419-2.40228 4.219 0 5.28126 2.37413 5.28126 5.951275v8.884687h-3.96752v-8.15838c0-2.37413-.67001-3.549-2.54304-3.549-2.15267 0-3.072298 1.20114-3.072298 4.13643v7.57094h-3.96939V33.17483zM0 27.670235h1.899303V47.62043H0V27.670234zm17.101238 9.415816v-.05818c2.068214-.44667 3.46454-2.37413 3.46454-4.47049 0-3.71603-3.046018-4.88901-6.39795-4.88901H5.729816v19.95019h8.438012c6.482405 0 7.152416-3.77233 7.152416-5.67163 0-2.597465-1.64969-4.523043-4.219006-4.860864zm-9.473996-7.79427h6.53871c2.989713 0 4.498645 1.25745 4.498645 3.74418 0 1.87116-1.48078 3.38196-4.498646 3.38196h-6.5387v-7.12614zm6.53871 16.70899H7.62724v-7.96506h6.53871c3.351932 0 5.253112 1.2856 5.253112 3.85679.001877 3.24121-2.430433 4.10828-5.253113 4.10828zm10.08958-18.33053h2.794528l6.900927 17.49161 6.874653-17.49161h2.794528v19.95019h-1.90118V30.38219h-.056304l-6.81835 17.238244h-1.788572l-6.8465-17.238245h-.056304v17.23824h-1.90118v-19.9502h.003753zm128.28556 0c1.88241 0 3.458908 1.49392 3.458908 3.45141 0 1.99502-1.578374 3.48894-3.45891 3.48894-1.891796 0-3.477676-1.493914-3.477676-3.488933 0-1.957486 1.587757-3.451405 3.477677-3.451405zm0 6.42986c1.595263 0 2.832063-1.27996 2.832063-2.97845 0-1.66095-1.2368-2.94091-2.832064-2.94091-1.62341 0-2.85083 1.28184-2.85083 2.940918.00188 1.69849 1.22742 2.978455 2.85083 2.978455zm-1.345654-4.99224h1.559606c.959035 0 1.41134.38099 1.41134 1.15985 0 .73195-.461688 1.03974-1.060382 1.10355l1.152344 1.79045h-.673764l-1.097918-1.74541h-.66438v1.7454h-.626846v-4.05385zm.626845 1.79984h.654997c.55365 0 1.060382-.02815 1.060382-.66813 0-.538636-.461688-.621215-.88584-.621215h-.82954v1.28935z"/>
  </g>
</svg>
