<svg xmlns="http://www.w3.org/2000/svg" width="97" height="72" viewBox="0 0 97 72">
  <g fill="none" fill-rule="evenodd">
    <rect width="97" height="71.637"/>
    <g transform="translate(0 14)">
      <path fill="#231F1F" d="M3.41148725 38.6102636C1.81139943 38.6102636 1.01149292 39.2228091 1.01149292 40.4477636 1.01149292 41.5141273 1.57728045 42.0471727 2.70858074 42.0471727 3.14274504 42.0471727 3.61125779 41.9622182 4.11425637 41.7919 4.61711756 41.6219909 5.12574929 41.3724455 5.64015156 41.0434L5.64015156 38.9165364C4.86291501 38.7122636 4.11988952 38.6102636 3.41148725 38.6102636M3.65165156 33.9312182C5.62874788 33.9312182 6.61702125 34.7765364 6.61702125 36.4664909L6.61702125 42.4894C6.61702125 42.6597182 6.53142493 42.7446727 6.36023229 42.7446727L6.00026062 42.7446727C5.82851841 42.7446727 5.73701416 42.6597182 5.72588527 42.4894L5.65732578 41.7578091C4.67413598 42.5404 3.64560623 42.9320364 2.57159915 42.9320364 1.78282153 42.9320364 1.15713031 42.7079909.694388102 42.2599.231371105 41.8119455 0 41.2135818 0 40.4648091 0 39.6369455.283031161 38.9845818.848543909 38.5082636 1.41433144 38.0316727 2.19459065 37.7938545 3.18877195 37.7938545 3.55451416 37.7938545 3.95419263 37.8278091 4.38863173 37.8957182 4.82265864 37.9637636 5.24006091 38.0601727 5.64015156 38.1850818L5.64015156 36.7558545C5.64015156 36.0638091 5.47417989 35.5675818 5.14292351 35.2669 4.81125496 34.9666273 4.26277904 34.8160818 3.49708357 34.8160818 2.7886813 34.8160818 2.04002266 34.9295364 1.25151983 35.1564455 1.12566714 35.1904 1.02578187 35.2216273.951589235 35.2501273.876847025 35.2783545.817080737 35.2924.771603399 35.2924.634209632 35.2924.565924929 35.2187636.565924929 35.0713545L.565924929 34.7991727C.565924929 34.6288545.639842776 34.5158091.78877762 34.4589455 1.22280453 34.2886273 1.6887068 34.1584 2.18566006 34.0675818 2.68316289 33.9767636 3.17118555 33.9312182 3.65165156 33.9312182M18.8231385 33.93115C19.611504 33.93115 20.2115025 34.1497409 20.6229969 34.5865136 21.0343538 35.02315 21.2401697 35.6667864 21.2401697 36.5176955L21.2401697 42.4894682C21.2401697 42.6597864 21.1541612 42.7447409 20.9829686 42.7447409L20.5199516 42.7447409C20.3487589 42.7447409 20.2630252 42.6597864 20.2630252 42.4894682L20.2630252 36.9258318C20.2630252 36.1773318 20.1342873 35.6385591 19.8770861 35.3093773 19.619885 34.9804682 19.200147 34.8160136 18.6171853 34.8160136 17.520096 34.8160136 16.4856584 35.1734227 15.5142844 35.8879682 15.5486329 36.1602864 15.5658071 36.4270136 15.5658071 36.6876045L15.5658071 42.4894682C15.5658071 42.6597864 15.479936 42.7447409 15.3084686 42.7447409L14.8457263 42.7447409C14.6745337 42.7447409 14.5885252 42.6597864 14.5885252 42.4894682L14.5885252 36.9258318C14.5885252 36.1773318 14.4599246 35.6385591 14.2029983 35.3093773 13.9456598 34.9804682 13.525647 34.8160136 12.9429601 34.8160136 11.8799445 34.8160136 10.8628184 35.1622409 9.89158187 35.8540136L9.89158187 42.4894682C9.89158187 42.6597864 9.80557337 42.7447409 9.63438074 42.7447409L9.17163853 42.7447409C8.99989632 42.7447409 8.91443739 42.6597864 8.91443739 42.4894682L8.91443739 34.4418318C8.91443739 34.2715136 8.99989632 34.1864227 9.17163853 34.1864227L9.51443598 34.1864227C9.68562861 34.1864227 9.7829034 34.2715136 9.80557337 34.4418318L9.87440765 35.1224227C10.3885351 34.7479682 10.9257448 34.45615 11.4856244 34.24615 12.045504 34.0362864 12.6001626 33.93115 13.1485011 33.93115 14.2225082 33.93115 14.942589 34.3683318 15.3084686 35.2413318 15.8572193 34.8105591 16.4315252 34.4841045 17.0313864 34.2631955 17.6316598 34.0418773 18.2284983 33.93115 18.8231385 33.93115M26.3998552 38.6102636C24.7999048 38.6102636 23.9998609 39.2228091 23.9998609 40.4477636 23.9998609 41.5141273 24.5656484 42.0471727 25.6970861 42.0471727 26.131113 42.0471727 26.5999006 41.9622182 27.1026244 41.7919 27.6056229 41.6219909 28.1141173 41.3724455 28.6286569 41.0434L28.6286569 38.9165364C27.851283 38.7122636 27.1082575 38.6102636 26.3998552 38.6102636M26.6400195 33.9312182C28.6171159 33.9312182 29.605664 34.7765364 29.605664 36.4664909L29.605664 42.4894C29.605664 42.6597182 29.5197929 42.7446727 29.3486003 42.7446727L28.9886286 42.7446727C28.8170238 42.7446727 28.7255195 42.6597182 28.7142533 42.4894L28.6458312 41.7578091C27.6626414 42.5404 26.6341116 42.9320364 25.5599671 42.9320364 24.7711895 42.9320364 24.1456357 42.7079909 23.6828935 42.2599 23.2197391 41.8119455 22.988368 41.2135818 22.988368 40.4648091 22.988368 39.6369455 23.2713992 38.9845818 23.8370493 38.5082636 24.4028368 38.0316727 25.1829586 37.7938545 26.1771399 37.7938545 26.5428822 37.7938545 26.942698 37.8278091 27.3769997 37.8957182 27.811164 37.9637636 28.2285663 38.0601727 28.6286569 38.1850818L28.6286569 36.7558545C28.6286569 36.0638091 28.4625479 35.5675818 28.1312915 35.2669 27.7996229 34.9666273 27.251147 34.8160818 26.485589 34.8160818 25.7770493 34.8160818 25.0283907 34.9295364 24.2398878 35.1564455 24.1140351 35.1904 24.0142873 35.2216273 23.9400946 35.2501273 23.8653524 35.2783545 23.8055861 35.2924 23.7601088 35.2924 23.6228524 35.2924 23.5542929 35.2187636 23.5542929 35.0713545L23.5542929 34.7991727C23.5542929 34.6288545 23.6283482 34.5158091 23.7771456 34.4589455 24.2113099 34.2886273 24.6772122 34.1584 25.1743028 34.0675818 25.6715309 33.9767636 26.1598283 33.9312182 26.6400195 33.9312182M37.7999108 42.1492L37.7999108 42.4894273C37.7999108 42.6597455 37.7143144 42.7447 37.5425722 42.7447L31.5085127 42.7447C31.3369079 42.7447 31.2511742 42.6597455 31.2511742 42.4894273L31.2511742 42.1322909C31.2511742 42.0191091 31.2656006 41.9282909 31.2941785 41.8599727 31.322619 41.7919273 31.3768895 41.7128364 31.4571275 41.6220182L36.6686105 35.0374273 31.6798428 35.0374273C31.5085127 35.0374273 31.4225042 34.9520636 31.4225042 34.7821545L31.4225042 34.4417909C31.4225042 34.2714727 31.5085127 34.1863818 31.6798428 34.1863818L37.5083612 34.1863818C37.679966 34.1863818 37.7655623 34.2714727 37.7655623 34.4417909L37.7655623 34.7992C37.7655623 34.8900182 37.7509986 34.9751091 37.7226955 35.0544727 37.6939802 35.1339727 37.6342139 35.2243818 37.5425722 35.3263818L32.3140524 41.8942 37.5425722 41.8942C37.7143144 41.8942 37.7999108 41.9791545 37.7999108 42.1492M42.8398027 42.1152318C44.8167616 42.1152318 45.8054472 40.8960045 45.8054472 38.4572773 45.8054472 36.0298682 44.8167616 34.8160955 42.8398027 34.8160955 40.862569 34.8160955 39.8741582 36.0298682 39.8741582 38.4572773 39.8741582 40.8960045 40.862569 42.1152318 42.8398027 42.1152318M42.8398027 42.9999591C41.5941908 42.9999591 40.6196568 42.6060045 39.9168877 41.81755 39.2139812 41.0290955 38.8626653 39.9092773 38.8626653 38.4572773 38.8626653 37.0051409 39.2139812 35.8879136 39.9168877 35.1054591 40.6196568 34.3225955 41.5941908 33.9310955 42.8398027 33.9310955 44.0852772 33.9310955 45.0596738 34.3225955 45.7624429 35.1054591 46.4654868 35.8879136 46.8170775 37.0051409 46.8170775 38.4572773 46.8170775 39.9092773 46.4654868 41.0290955 45.7624429 41.81755 45.0596738 42.6060045 44.0852772 42.9999591 42.8398027 42.9999591M53.2283241 33.93115C54.0735705 33.93115 54.7136881 34.1497409 55.148402 34.5865136 55.5825663 35.02315 55.7996484 35.6667864 55.7996484 36.5176955L55.7996484 42.4894682C55.7996484 42.6597864 55.7139147 42.7447409 55.5427221 42.7447409L55.0795677 42.7447409C54.9083751 42.7447409 54.8226414 42.6597864 54.8226414 42.4894682L54.8226414 36.9258318C54.8226414 36.1773318 54.6794771 35.6385591 54.3938354 35.3093773 54.1083312 34.9804682 53.6508099 34.8160136 53.0223708 34.8160136 52.4167391 34.8160136 51.8398227 34.9098318 51.2909346 35.0967864 50.742596 35.2840136 50.2051116 35.5536045 49.6797178 35.9050136L49.6797178 42.4894682C49.6797178 42.6597864 49.5938467 42.7447409 49.4225167 42.7447409L48.9599119 42.7447409C48.7883071 42.7447409 48.7027108 42.6597864 48.7027108 42.4894682L48.7027108 34.4418318C48.7027108 34.2715136 48.7883071 34.1864227 48.9599119 34.1864227L49.3027093 34.1864227C49.473902 34.1864227 49.5710394 34.2715136 49.5938467 34.4418318L49.662681 35.1734227C50.2110195 34.7764682 50.7939813 34.4701955 51.4111541 34.2544682 52.0281895 34.0390136 52.6338212 33.93115 53.2283241 33.93115M93.7388215 38.6102636C92.1387337 38.6102636 91.3388272 39.2228091 91.3388272 40.4477636 91.3388272 41.5141273 91.9046147 42.0471727 93.035915 42.0471727 93.4699419 42.0471727 93.9387295 41.9622182 94.441728 41.7919 94.9444518 41.6219909 95.453221 41.3724455 95.9676232 41.0434L95.9676232 38.9165364C95.1901119 38.7122636 94.4472238 38.6102636 93.7388215 38.6102636L93.7388215 38.6102636zM93.9789858 33.9312182C95.9560822 33.9312182 96.9444929 34.7765364 96.9444929 36.4664909L96.9444929 42.4894C96.9444929 42.6597182 96.8587592 42.7446727 96.6875666 42.7446727L96.3275949 42.7446727C96.1559901 42.7446727 96.0644858 42.6597182 96.0533569 42.4894L95.9847975 41.7578091C95.0014703 42.5404 93.9729405 42.9320364 92.8990708 42.9320364 92.1101558 42.9320364 91.484602 42.7079909 91.0218598 42.2599 90.5587054 41.8119455 90.3273343 41.2135818 90.3273343 40.4648091 90.3273343 39.6369455 90.6103654 38.9845818 91.1758782 38.5082636 91.7418031 38.0316727 92.5219249 37.7938545 93.5161062 37.7938545 93.881711 37.7938545 94.2815269 37.8278091 94.715966 37.8957182 95.1499929 37.9637636 95.5673952 38.0601727 95.9676232 38.1850818L95.9676232 36.7558545C95.9676232 36.0638091 95.8016516 35.5675818 95.4703952 35.2669 95.1385892 34.9666273 94.5902507 34.8160818 93.8244178 34.8160818 93.1160156 34.8160818 92.3674943 34.9295364 91.5788541 35.1564455 91.4530014 35.1904 91.3531161 35.2216273 91.2790609 35.2501273 91.2041813 35.2783545 91.144415 35.2924 91.0990751 35.2924 90.9616813 35.2924 90.8931218 35.2187636 90.8931218 35.0713545L90.8931218 34.7991727C90.8931218 34.6288545 90.9671771 34.5158091 91.1161119 34.4589455 91.5501388 34.2886273 92.0160411 34.1584 92.5131317 34.0675818 93.0103598 33.9767636 93.4986572 33.9312182 93.9789858 33.9312182L93.9789858 33.9312182zM85.6526487 38.9675364L83.1667833 42.5574455C83.075279 42.6826273 82.9554717 42.7446727 82.806949 42.7446727L82.3270326 42.7446727C82.1779603 42.7446727 82.1039051 42.6826273 82.1039051 42.5574455 82.1039051 42.5123091 82.1437493 42.4384 82.2238499 42.3364L85.1555581 38.2870818 82.481051 34.5778545C82.4124915 34.4758545 82.3782805 34.4079455 82.3782805 34.3738545 82.3782805 34.2490818 82.4524731 34.1864909 82.6009958 34.1864909L83.1325722 34.1864909C83.2810949 34.1864909 83.4010397 34.2490818 83.4925439 34.3738545L85.7385198 37.5385818 87.9840836 34.3738545C88.0751756 34.2490818 88.189762 34.1864909 88.3267436 34.1864909L88.7896232 34.1864909C88.9382833 34.1864909 89.0127507 34.2490818 89.0127507 34.3738545 89.0127507 34.4194 88.9784023 34.4927636 88.9098428 34.5949L86.2696841 38.2190364 89.2013924 42.3364C89.2699518 42.4384 89.3041629 42.5123091 89.3041629 42.5574455 89.3041629 42.6826273 89.2295581 42.7446727 89.0810354 42.7446727L88.5498711 42.7446727C88.4124773 42.7446727 88.2981657 42.6826273 88.2069363 42.5574455L85.6526487 38.9675364zM77.7353329 34.7991727C76.8785453 34.7991727 76.2010567 35.0485818 75.7041034 35.5476727 75.2068754 36.0469 74.9069448 36.7783545 74.8043116 37.7424455 75.2498796 37.8561727 75.6926997 37.9412636 76.1326346 37.9977182 76.572432 38.0545818 77.0155269 38.0826727 77.4610949 38.0826727 78.318432 38.0826727 78.9468711 37.9581727 79.3469618 37.7084909 79.746915 37.4590818 79.9469603 37.0618545 79.9469603 36.5176273 79.9469603 35.3717636 79.2097054 34.7991727 77.7353329 34.7991727L77.7353329 34.7991727zM79.9126119 41.8258545C80.0611346 41.7808545 80.1699504 41.7439 80.2383725 41.7152636 80.306932 41.6870364 80.3698584 41.6729909 80.4271516 41.6729909 80.5641331 41.6729909 80.6325552 41.7467636 80.6325552 41.8941727L80.6325552 42.1322636C80.6325552 42.3139 80.5697663 42.4328091 80.4441884 42.4894 79.6210623 42.8297636 78.7471006 42.9999455 77.821204 42.9999455 76.5070326 42.9999455 75.5039207 42.6230364 74.8126926 41.8686727 74.1210524 41.1144455 73.7756445 40.0114 73.7756445 38.5594 73.7756445 37.8447182 73.8668739 37.2008091 74.0496076 36.6282182 74.2323414 36.0556273 74.4980609 35.5675818 74.8467663 35.1647636 75.1953343 34.7623545 75.6211176 34.4560818 76.1238414 34.2460818 76.6268399 34.0363545 77.1927649 33.9312182 77.821204 33.9312182 78.8155227 33.9312182 79.5841034 34.1584 80.1269462 34.6118091 80.669789 35.0659 80.9411416 35.7005364 80.9411416 36.5176273 80.9411416 37.3231273 80.6526147 37.9154909 80.0756983 38.2956727 79.4985071 38.6754455 78.6040737 38.8656727 77.3926728 38.8656727 76.9582337 38.8656727 76.5209093 38.8399 76.0812493 38.7890364 75.6413144 38.7380364 75.2039901 38.6502182 74.7698258 38.5253091 74.7698258 39.7501273 75.0296374 40.6547636 75.5496728 41.2389455 76.0697082 41.8234 76.84983 42.1152182 77.8897635 42.1152182 78.5642295 42.1152182 79.2382833 42.0190818 79.9126119 41.8258545L79.9126119 41.8258545zM70.5768428 30.4092182C70.5768428 30.2391727 70.6624391 30.1540818 70.8340439 30.1540818L71.2967861 30.1540818C71.4679788 30.1540818 71.5539873 30.2391727 71.5539873 30.4092182L71.5539873 41.2645818C71.5539873 41.5141273 71.6023499 41.6897636 71.6998994 41.7919 71.7966246 41.8941727 71.9709773 41.9453091 72.2226827 41.9453091 72.2911048 41.9453091 72.3683201 41.9395818 72.4540538 41.9282636 72.5395127 41.9168091 72.6109575 41.9112182 72.6683881 41.9112182 72.8280397 41.9112182 72.908415 41.9905818 72.908415 42.1491727L72.908415 42.4723545C72.908415 42.6087182 72.8339476 42.6938091 72.6854249 42.7276273 72.6168654 42.7504 72.516568 42.7671727 72.3854943 42.7786273 72.2535963 42.7896727 72.1366742 42.7956727 72.0337663 42.7956727 71.5766572 42.7956727 71.2195708 42.6625818 70.9623697 42.3957182 70.7053059 42.1296727 70.5768428 41.7578091 70.5768428 41.2816273L70.5768428 30.4092182zM65.1081586 38.6102636C63.5082082 38.6102636 62.7080269 39.2228091 62.7080269 40.4477636 62.7080269 41.5141273 63.2740892 42.0471727 64.4053895 42.0471727 64.8394164 42.0471727 65.3080666 41.9622182 65.8109278 41.7919 66.3140637 41.6219909 66.8224207 41.3724455 67.3369603 41.0434L67.3369603 38.9165364C66.5597238 38.7122636 65.8165609 38.6102636 65.1081586 38.6102636L65.1081586 38.6102636zM65.3481856 33.9312182C67.3254193 33.9312182 68.3136926 34.7765364 68.3136926 36.4664909L68.3136926 42.4894C68.3136926 42.6597182 68.2282337 42.7446727 68.0569037 42.7446727L67.696932 42.7446727C67.5254646 42.7446727 67.4336856 42.6597182 67.4225567 42.4894L67.3539972 41.7578091C66.3709448 42.5404 65.3422776 42.9320364 64.2682705 42.9320364 63.4794929 42.9320364 62.8538017 42.7079909 62.3910595 42.2599 61.9281799 41.8119455 61.6966714 41.2135818 61.6966714 40.4648091 61.6966714 39.6369455 61.9798399 38.9845818 62.5453527 38.5082636 63.1111402 38.0316727 63.891262 37.7938545 64.8855807 37.7938545 65.2511856 37.7938545 65.650864 37.8278091 66.0854405 37.8957182 66.5196048 37.9637636 66.9367323 38.0601727 67.3369603 38.1850818L67.3369603 36.7558545C67.3369603 36.0638091 67.1709887 35.5675818 66.8395949 35.2669 66.5080637 34.9666273 65.9595878 34.8160818 65.193755 34.8160818 64.4853527 34.8160818 63.7366941 34.9295364 62.9483286 35.1564455 62.8223385 35.1904 62.7224533 35.2216273 62.6485354 35.2501273 62.5736558 35.2783545 62.5137521 35.2924 62.4682748 35.2924 62.330881 35.2924 62.2624589 35.2187636 62.2624589 35.0713545L62.2624589 34.7991727C62.2624589 34.6288545 62.3366516 34.5158091 62.485449 34.4589455 62.9197507 34.2886273 63.3855156 34.1584 63.8824688 34.0675818 64.3798343 33.9767636 64.8681317 33.9312182 65.3481856 33.9312182L65.3481856 33.9312182z"/>
      <path fill="#31C4F3" d="M34.4332414,13.9337727 C34.4332414,20.9991818 39.7319694,26.8355455 46.6004212,27.7438636 L46.6004212,24.9361364 C46.6004212,24.1446818 46.0972853,23.4331364 45.3412074,23.181 C41.3782215,21.8599091 38.5433759,18.1005 38.6477952,13.6986818 C38.774747,8.33986364 43.1729963,4.1265 48.5735331,4.18063636 C53.9542853,4.23463636 58.2993632,8.58054545 58.2993632,13.9337727 C58.2993632,14.0558182 58.2964779,14.1770455 58.2919439,14.2981364 C58.2838377,14.4916364 58.2768306,14.6035909 58.2680374,14.7148636 C58.2652895,14.7503182 58.2618547,14.7856364 58.2585572,14.8209545 C58.2516875,14.8986818 58.2435813,14.9758636 58.2347881,15.0529091 C58.224621,15.1404545 58.2132173,15.2273182 58.2011266,15.3140455 C58.1956309,15.3535909 58.1899977,15.3932727 58.1840898,15.4325455 C56.9809326,23.2989545 46.6581266,27.7198636 46.6015204,27.7441364 C47.2136096,27.825 47.8379269,27.8674091 48.4721365,27.8674091 C56.2258164,27.8674091 62.5113065,21.6290455 62.5113065,13.9337727 C62.5113065,6.23836364 56.2258164,0 48.4721365,0 C40.7187314,0 34.4332414,6.23836364 34.4332414,13.9337727 Z"/>
    </g>
  </g>
</svg>
