<svg xmlns="http://www.w3.org/2000/svg" width="90" height="72" viewBox="0 0 90 72" xmlns:xlink="http://www.w3.org/1999/xlink">
  <defs>
    <path id="a" d="M17.532636.023916H.005566v18.081456h17.52707V.023916z"/>
    <path id="c" d="M2.933668 2.57068V.040358H.193775V2.57068h2.739893z"/>
    <path id="e" d="M.000065 25.70979h31.308687V.089267H.000065z"/>
  </defs>
  <g fill="none" fill-rule="evenodd">
    <path fill="#656464" d="M45.80266 52.70789c.266537 0 .49161.098654.668117.292972.176506.194318.254098.43288.230406.707916-.0154.177577-.07463.346186-.175914.499846-.10129.153063-.23159.273242-.38796.356948-.15756.083706-.32755.126157-.50642.126157-.17947 0-.34235-.04246-.4845-.12616s-.25173-.20389-.32636-.35695c-.07463-.15366-.10425-.32167-.08885-.49985.02369-.27504.14215-.5136.35123-.70792.20967-.19432.45192-.29297.72024-.29297m.03494-.39043c-.41106 0-.76881.14828-1.06378.44065-.26772.26487-.41876.58295-.45015.94408-.03199.36412.07107.68759.30622.95963.23573.27264.5615.41076.969.41076.40632 0 .75518-.13812 1.03771-.41076.28252-.27205.44185-.59551.47325-.95964.03139-.36293-.06516-.68161-.28727-.94648-.24403-.29058-.57572-.43826-.985-.43826m28.89269.41721c.26653 0 .49161.09865.66811.29297.1765.19431.25409.43288.2304.70851-.0154.17698-.07463.34559-.17592.49925-.10129.15306-.23159.27324-.38796.35694-.15755.08371-.32754.12616-.50642.12616-.17947 0-.34176-.04245-.4845-.12616-.14215-.08371-.25173-.20389-.32636-.35695-.07463-.15366-.10425-.32167-.08885-.49925.02369-.27564.14215-.5142.35123-.70852.20968-.19432.45193-.29298.72024-.29298m.03494-.39043c-.41106 0-.76881.14828-1.06378.44066-.26713.26487-.41935.58295-.45015.94408-.03198.36412.07108.68759.30622.95963.23574.27265.5615.41076.96901.41076.40632 0 .75518-.13811 1.03771-.41076.28253-.27204.44186-.59551.47325-.95963.03139-.36293-.06516-.68161-.28727-.94648-.24403-.29058-.57571-.43826-.985-.43826"/>
    <g transform="translate(39.654 30.002)">
      <mask id="b" fill="#fff">
        <use xlink:href="#a"/>
      </mask>
      <path fill="#656464" d="M10.686072 14.801963c-.338796.150074-1.489638.489084-1.758542.51898-.424088.04544-.871276.05979-.871276.05979h-4.98066s-.09477.007772-.148668-.063378c-.052715-.07115-.039684-.162032-.039684-.162032l.517672-6.090828.538402-6.09023s.00237-.09148.067522-.16263c.066338-.070553.15933-.06278.15933-.06278h4.98066s.44482.013752.861207.05979c.264167.029297 1.355778.368906 1.668513.51898 2.183223 1.06606 3.389148 3.1629 3.174143 5.73687-.23159 2.574566-1.80059 4.67081-4.16861 5.737468M15.92321 3.19489C14.781837 1.675023 13.118657.674135 11.08232.201194 10.936616.16532 10.49772.0858 10.062972.054708c-.382035-.03109-.795462-.03109-.795462-.03109L4.560492.038564h-2.69438v.00299C1.685462.05112 1.52791.1994 1.511326.385347 1.196813 4.042117.953376 6.87139.764433 9.064495.57312 11.258198.32613 14.08747.00688 17.74424c-.015993.185947.11609.334227.294965.343793v.002392h2.69438l4.704056.014947s.41343 0 .8008-.030493c.44067-.03169.89319-.11062 1.04482-.14649 2.11807-.47354 3.95539-1.47383 5.36033-2.9943 1.47957-1.60358 2.39764-3.68786 2.59191-5.86961.18421-2.18175-.37315-4.26544-1.57493-5.86961" mask="url(#b)"/>
    </g>
    <path fill="#656464" d="M61.63138 34.196184h-1.697534c-.29556 0-.554394.224213-.578086.496258l-1.050743 12.126053c-.00237.029895-.000592.061584.001777.09387.009477.651116.568017 1.15993 1.272856 1.15993.706023 0 1.352223-.508814 1.475422-1.160528.008292-.031688.0154-.063377.01836-.093272l1.050744-12.126053c.023692-.272045-.19783-.496258-.492795-.496258m-.71259-1.574994c.75459 0 1.41442-.566213 1.47542-1.26576.06042-.698946-.50108-1.264562-1.25627-1.264562-.754 0-1.41441.565616-1.47542 1.264563-.06041.69955.50227 1.26576 1.25627 1.26576m16.38175 12.17562c-.3382.14948-1.48726.48849-1.75617.51838-.42409.04544-.87009.0592-.87009.0592h-4.97474s-.09417.00837-.14807-.06278c-.05271-.07055-.03968-.16203-.03968-.16203l.51649-6.08246.53781-6.08305s.00296-.09088.06812-.16203c.06575-.07115.15874-.06278.15874-.06278h4.97474s.44364.01376.85943.0592c.26417.0299 1.3546.36891 1.66674.51838 2.18027 1.06546 3.38441 3.15932 3.17 5.7303-.231 2.57038-1.79823 4.66483-4.16328 5.7297m5.23062-11.59213c-1.13958-1.51807-2.80099-2.51717-4.83495-2.99011-.14511-.03587-.58342-.11479-1.01817-.14648-.38144-.03049-.79427-.03049-.79427-.03049l-4.70109.01495h-2.69083v.00239c-.18006.00957-.3382.15785-.35419.3432-.31451 3.65259-.55735 6.47827-.7463 8.66899-.19072 2.19011-.43771 5.0158-.75637 8.66838-.01599.18535.1161.33363.29497.3432l-.00059.0024h2.69083l4.69873.01495s.41284 0 .79961-.0305c.44008-.03169.89201-.11061 1.04305-.14649 2.1157-.47234 3.95065-1.47143 5.35381-2.9901 1.4778-1.60178 2.39468-3.68308 2.58895-5.86183.18362-2.17935-.37315-4.26065-1.57315-5.86243m6.11142.94307H86.9451c-.29556 0-.55439.22422-.578084.49626l-1.05078 12.12603c-.00237.0299-.000593.06159.001776.09447.00948.65052.56802 1.15933 1.27286 1.15933.706026 0 1.352227-.50881 1.475425-1.16052.008294-.03169.0154-.06338.01836-.09327l1.05074-12.12605c.023694-.27205-.197826-.49626-.492793-.49626"/>
    <g transform="translate(86.476 30.002)">
      <mask id="d" fill="#fff">
        <use xlink:href="#c"/>
      </mask>
      <path fill="#656464" d="M1.45398 2.57068c.754593 0 1.414417-.566213 1.475424-1.26576C2.98982.605975 2.428317.04036 1.673134.04036c-.754 0-1.414417.565616-1.474832 1.264563-.061007.699547.50168 1.26576 1.25568 1.26576" mask="url(#d)"/>
    </g>
    <path fill="#656464" d="M43.734464 55.01083c-.001185.015545-.006516.029297-.015993.040657-.00888.01136-.02369.020927-.04442.027504-.02132.00658-.04738.01256-.07937.01734-.03198.00479-.07285.00718-.12379.00718-.0462 0-.08588-.00239-.11905-.00717-.03317-.00478-.05864-.01076-.07759-.01734-.01895-.00657-.03139-.01614-.0385-.0275-.0071-.01136-.01007-.02511-.00888-.04065l.28253-3.26036h-.00592l-1.59625 3.25737c-.0071.01376-.01658.02512-.02843.03468-.01125.00957-.02784.01794-.04916.02452-.02132.00718-.0462.01196-.07522.01435-.02843.00299-.06278.00479-.10187.00479-.04146 0-.0764-.00239-.10602-.00598-.02902-.00358-.0533-.00897-.07226-.01554-.01895-.00717-.03317-.01554-.04383-.02511-.00947-.00956-.01599-.02033-.01895-.03169l-1.03534-3.25738h-.00237l-.28312 3.26036c-.00118.01555-.00651.0293-.0154.04066-.00888.01136-.02369.02093-.04501.02751-.02073.00658-.04797.01256-.08055.01734-.03257.00479-.07463.00718-.12497.00718-.04857 0-.08885-.00239-.12083-.00717-.03258-.00478-.05745-.01076-.07641-.01734-.01836-.00657-.0308-.01614-.03672-.0275-.00652-.01136-.00889-.02511-.00711-.04065l.29793-3.44213c.00711-.08131.03435-.13871.08114-.17399.04679-.03467.09714-.05142.15163-.05142h.31096c.06397 0 .11964.00539.16644.01675.04679.01196.08766.03049.12142.055.03376.02511.06042.0568.08115.09567.02073.03886.03791.08371.05153.13572l.88904 2.69355h.01481l1.33742-2.68458c.02725-.05799.05509-.10702.0847-.14768.02962-.04066.06101-.07294.09359-.09686.03376-.02391.0693-.04125.10839-.05202.0385-.01016.08292-.01554.13327-.01554h.32635c.03021 0 .05864.00419.0847.01256s.04738.02213.06515.04066c.01718.01854.0308.04126.04028.06936.00948.02811.01303.06219.00948.10284l-.29852 3.44213zm6.34319-2.139892c.18776-.15366.40691-.231388.650348-.231388.147483 0 .28786.03109.41698.092675.129122.060986.230406.1423.302666.241552.06693.09088.114907.211658.144522.360535h-1.83258c.082922-.203884.190128-.35934.318065-.463374m1.66022 1.048122c-.06693 0-.17236.0855-.17236.0855l-.01836.026906c-.112537.160238-.215598.278025-.30622.35037-.089437.07115-.197828.129148-.321027.172197-.124383.043048-.251728.06517-.377888.06517-.261798 0-.47621-.091478-.63791-.272045-.155774-.172793-.22922-.39581-.218558-.66367h2.319452l.00237-.03468c.027245-.351566-.045016-.64992-.215598-.885492-.23929-.33363-.587563-.502836-1.035936-.502836-.43534 0-.802568.16502-1.09102.491476-.22685.255902-.356564.551265-.384994.878916-.030208.34738.065153.66367.28312.939304.21856.27623.547286.416738.976112.416738.192498 0 .37019-.029298.528925-.086696.158737-.057997.30622-.143497.438896-.25411.13149-.11061.25409-.257694.36248-.437065l.01244-.01973c.01362-.025113.02428-.052018.02665-.081315.00947-.104633-.06753-.188938-.17059-.188938m9.67536.294706c-.09773.148878-.231.268458-.39684.355154-.33051.174588-.70603.17698-.99862-.000598-.14512-.08789-.25765-.212853-.33465-.3707-.07641-.158443-.1084-.326454-.093-.499247.01481-.17399.07522-.342.17828-.49865.10365-.15665.23692-.27982.39625-.365917.15873-.086696.33109-.130342.51056-.130342.27956 0 .50997.09686.6847.28759.17413.19133.24995.432284.22566.716885-.01659.18715-.07404.35695-.17236.50583zm.63909-1.62988c-.01007-.092078-.08056-.16263-.1771-.16263s-.17888.070552-.20494.16263h-.00888l-.01777.203884c-.10721-.143497-.23396-.255304-.37789-.333032-.1694-.09088-.36605-.137517-.58401-.137517-.37789 0-.71787.13513-1.00988.40239-.292.26667-.45666.59252-.48924.9686-.03317.38326.07345.7133.31629.98116.24344.26786.55795.40359.93406.40359.21145 0 .41343-.04424.59941-.13034.16051-.07474.31214-.18176.45192-.31868l-.0154.18236h.00118c-.01007.11062.07166.2009.18124.2009s.20612-.09028.21619-.20089l.1925-2.2224h-.0077zm7.12467 1.67287c-.09773.148877-.231.26846-.39684.355153-.3305.17458-.70602.17697-.99921-.0006-.14452-.08789-.25706-.21286-.33406-.3707-.077-.15845-.10839-.32646-.09358-.49925.0154-.17399.07522-.342.17887-.49865.10365-.15665.23692-.27982.39566-.36592.15933-.0867.33169-.13034.51115-.13034.27957 0 .50997.09686.6847.28759.17414.19133.24995.43228.22567.71688-.01659.18714-.07404.35694-.17236.50582zm.64679-1.62988c-.01007-.09208-.07049-.162033-.1848-.16263-.09655-.0006-.18125.041254-.21382.16263l-.01777.203883c-.10721-.1435-.23396-.25531-.37789-.33304-.1694-.09088-.36604-.13752-.5846-.13752-.3773 0-.71728.13512-1.00928.40238-.292.26666-.45666.59252-.48924.9686-.03317.38325.07285.71329.31629.98115s.55736.40358.93406.40358c.21145 0 .41343-.04425.59941-.13034.16051-.07474.31214-.18176.45192-.31868l-.01599.18236h.00118c-.00948.11061.07167.20089.18184.20089.10957 0 .20612-.09029.21559-.2009l.19309-2.2224zm10.88993-.075516l.00177-.007773c-.09655-.087892-.21738-.09447-.31333-.107623-.16229-.022122-.4697.06577-.67226.32765l.02251-.26188h-.00533c-.00296-.10284-.07937-.183556-.18421-.183556-.10484 0-.19487.080716-.21619.183555h-.00474l-.21086 2.437647h.00414c.00178.104035.07878.185948.18421.185948.10602 0 .19724-.081913.21737-.185948h.00474l.0616-.7127c.03791-.437663.08411-.73183.13682-.872936.06752-.18236.15578-.318084.26121-.402986.10425-.083706.20908-.126755.31214-.126755.04264 0 .09654.01435.15873.041255.02606.015545.05509.026308.08885.026308.10602 0 .1996-.086696.20908-.194318.00533-.059193-.01777-.110014-.05627-.14589m-31.5924-.168488l-.02606-.023915c-.00652-.004186-.01244-.005382-.01896-.00897-.00947-.004782-.01895-.008968-.02902-.012555-.08766-.043647-.17473-.069955-.25706-.069955-.12912 0-.25765.038266-.38322.114798-.09832.059192-.19664.14529-.2926.255304l.02606-.304332h-.00355c.00119-.107025-.07759-.191927-.18539-.191927-.1078 0-.20138.084902-.21856.191927H47.73l-.21915 2.53032c0 .001795-.001182.00359-.001774.005382 0 .001794.00118.003588.00059.005382 0 0-.01718.18594.187164.20268.18421.01435.22389-.20807.22389-.20807l.07049-.81076c.037902-.43767.084102-.73183.13682-.87294.06811-.18236.155772-.31809.2612-.40299.104246-.08371.209084-.12676.312144-.12676.04324 0 .09714.01435.15992.04185l.02606.01136.00178-.00239c.02014.00717.04146.01315.06515.01315.1078 0 .20316-.0879.21205-.19731.00474-.05441-.01244-.10344-.045013-.13931m15.63699 1.36052c.03021-.35097.016-.61345-.04323-.78206-.05923-.1698-.16407-.30672-.31155-.40717-.14689-.09985-.32281-.15067-.5236-.15067-.19605 0-.3844.04484-.55913.13453-.14866.07533-.29082.18535-.42408.32705l.01718-.19552h-.00651c.01007-.11061-.07107-.2003-.18124-.2003-.10957 0-.20612.08968-.21619.20029l-.1925 2.223h.00474c.00237.10045.07759.17997.18065.17997s.19191-.07952.21205-.17997h.00652l.06693-.7707c.02843-.33363.06456-.56442.10602-.6864.06456-.18595.18125-.34379.3465-.47115.16466-.12556.34591-.18954.54018-.18954.16881 0 .30326.04125.39981.12137.09596.07952.15637.20149.17947.36233.01599.09566.01126.29118-.01362.58116l-.08944 1.03018h.00652c0 .00239-.00119.00418-.00178.00657-.00948.10822.07048.19611.17769.19611.1078 0 .20198-.08789.21145-.19611.00059-.00239-.00059-.00419-.00059-.00658h.01007l.09773-1.12645zm13.8258-1.33497c-.11372 0-.21441.09327-.22448.20807 0 .00358.00178.00657.00119.00956l-.09122 1.0565c-.02724.3139-.0616.52137-.10247.61584-.05863.13632-.15459.24813-.28489.33183-.13149.0837-.28904.12675-.46792.12675-.18006 0-.33228-.04425-.4537-.13035-.12023-.0861-.19783-.20449-.22981-.35217-.02191-.10583-.02013-.30493.00415-.59193l.0924-1.06367c0-.0012.00059-.0018.00059-.00239.01007-.1124-.07285-.20388-.1842-.20388s-.21026.09148-.21974.20389l-.09595 1.10373c-.03139.36652-.01244.64634.05746.83049.06989.18655.19013.33363.35657.43826.16525.10344.38085.15606.6391.15606.25943 0 .48273-.05261.66457-.15605.18302-.10463.32754-.25052.43001-.43407.10128-.18236.16821-.455.19901-.81075l.09773-1.12765c.01007-.1148-.07463-.20807-.18835-.20807m6.00132.55282c.19013-.15486.41106-.23378.65686-.23378.14926 0 .29141.03168.42172.09327.13031.06158.23277.14409.30622.24454.06693.09148.1155.21405.14511.36412H84.2644c.083514-.20568.191313-.36293.321027-.46816m1.656667 1.0816c-.067523 0-.127345.03766-.166437.09088h-.00533c-.113723.16203-.217375.28161-.309182.35396-.090622.07234-.200198.13094-.32458.17399-.12557.04364-.254098.06636-.382036.06636-.26417 0-.48095-.09267-.64443-.27503-.15756-.17459-.23159-.4-.22093-.67085h2.34374l.00237-.03468c.02783-.35575-.04561-.6565-.21738-.89506-.24225-.33722-.59408-.50822-1.04719-.50822-.44008 0-.81145.16741-1.10227.49686-.22982.25889-.36012.55724-.38915.88788-.03021.35157.06574.67085.28608.94947.22093.27922.55262.42092.98618.42092.19427 0 .37433-.0293.53485-.08789.16051-.0586.30918-.144698.44304-.2565.13327-.11181.25706-.26009.36663-.44185l-.00059-.0006c.01184-.02332.01954-.04843.02191-.07534.00947-.10702-.0693-.19432-.17532-.19432m-2.81877-.36388c.03021-.35097.01599-.61345-.04324-.78206-.05982-.16981-.16407-.30673-.31155-.40658-.14749-.10045-.3234-.15127-.5236-.15127-.19665 0-.38441.04544-.55973.13453-.14867.075933-.29082.18535-.4235.32705l.01658-.19133c.00059-.00299.00237-.00538.00237-.00837 0-.00299-.00119-.00538-.00119-.00777l.00237-.02272h-.00474c-.00652-.09865-.08055-.17518-.18243-.17518-.10188 0-.18954.07653-.21323.17518h-.00355l-.00178.017933c-.0006.00478-.00296.00837-.00356.01256 0 .00478.00178.00837.00178.01255l-.19783 2.28757v.0006c-.00948.111804.07285.203283.18361.20269.11135 0 .20967-.090886.21915-.20329h.00118l.07285-.84364c.02843-.33303.06456-.56442.10602-.68579.06456-.18595.18124-.34439.34649-.47115.16406-.12556.3459-.189533.53958-.189533.16881 0 .30326.04066.4004.12078.09595.07952.15636.20149.17946.362925.01599.09507.01126.29058-.01362.58057l-.09713 1.12525h.00118c-.00948.11181.07285.20269.18361.20269s.20849-.09088.21856-.20269l.10543-1.22151zm5.71997-1.55879c.00948-.10882-.07049-.19671-.17769-.19671-.08174 0-.15578.05022-.19072.12197l-.00119-.0006-1.01402 1.91867-.70721-1.91867-.00356.00119c-.02784-.060987-.08647-.10463-.16051-.10463-.10839 0-.20375.08909-.21323.19791-.00118.01494.00296.0275.00474.04125l-.00889.00299.82981 2.25708-.42764.78086c-.01896.0293-.03376.06158-.03673.09746-.00947.11121.07167.20149.18184.20149.09359 0 .17473-.06637.20375-.15486h.00119l1.7159-3.19459-.00948-.00359c.00534-.01555.01244-.030496.01363-.047238m-30.36634.69506c-.05982-.1692-.16466-.30612-.31155-.40597-.14748-.10045-.3234-.15127-.5236-.15127-.19487 0-.38204.04544-.55736.13453-.14867.07593-.29201.18595-.42587.32765l.09003-1.18624c.00829-.09267-.07878-.19073-.17592-.19073-.09714 0-.18066.07115-.20672.16383l-.29556 3.34048s-.01955.22541.17946.22541c.21678 0 .22389-.22541.22389-.22541l.075812-.87115c.02902-.33482.06456-.56561.10602-.68639.06515-.18535.18124-.343796.34649-.47055.16466-.12616.3465-.189536.54018-.189536.16881 0 .30267.04066.39862.120776.09536.08012.15696.20209.18302.36233.01481.09566.00948.291175-.01599.58116l-.104243 1.1671c.018953.17638.106613.21166.189535.21166.1765 0 .21619-.203285.21619-.203285l.11017-1.27174c.0308-.35217.01658-.61524-.04265-.78266m-2.85969-.49135h-.39388s.06989-.7689.07048-.77488c.01007-.1136-.073447-.20628-.18598-.20628-.11313 0-.212047.09268-.222117.20628 0 .00239-.06574.77488-.06574.77488h-.45726l-.000598.00299h-.00059c-.09536 0-.17887.07773-.18716.17339-.008296.09567.0616.17339.15696.17339h.00059v.00299h.45785l-.18954 2.17995s-.00178.21585.17651.21585c.19368 0 .22507-.18953.22507-.18953l.19072-2.20626h.39388s.15104-.01495.16525-.17578c.01362-.15725-.13445-.17698-.13445-.17698m16.73429-.82845c-.06752 0-.12853.02392-.18006.07115-.05153.047235-.08055.10523-.08647.1722-.00592.06577.01362.12317.05686.1704.04324.04724.1001.07115.16762.07115.06811 0 .12853-.02391.18006-.07115.05153-.04723.08055-.10463.08647-.1704.00593-.06696-.01303-.12496-.05686-.172195-.04324-.047235-.0995-.07115-.16762-.07115m.13167.953532c.00178-.05382-.01303-.10165-.04857-.14051-.0385-.04186-.08825-.06278-.14807-.06278-.05982 0-.11313.02092-.15873.06278-.04265.03886-.06575.0861-.07286.13991-.00177.00358-.00414.00717-.00474.01076l-.18835 2.15843c-.01184.1417-.02843.24932-.04857.32047-.02073.07175-.04797.13333-.08469.17937-.08944.1136-.20316.12436-.24225.12915 0 0-.28667.00358-.29497.01853-.00177.00359-.07818.05262-.08766.15665-.01244.14589.11787.17818.11787.17818s.27957.00119.30207 0c0 0 .16466 0 .28549-.05501.09536-.04365.17947-.09806.24581-.17519.06693-.07773.12024-.17519.15874-.28939.03909-.115396.06693-.27025.08352-.460386l.18835-2.16082c.00059-.00359-.00177-.00658-.00237-.010163"/>
    <path fill="#F98919" d="M15.750654 50.075805c5.35559-.169804 9.602982-4.471112 9.665173-9.81277l-.000592-4.59368h5.893398v5.07858c-.114906 8.260615-7.229037 14.776552-15.55798 14.963695v-.001196C7.283708 55.65782.116863 49.094648.00018 40.747337V31.61797c-.013623-.933924.58934-1.539598 1.49793-1.525847l23.914166-.000598v5.576035l-18.751668.004784c-.48154 0-.769992.29596-.769992.777272v3.720147c.063377 5.412808 4.38303 9.851035 9.859448 9.906042h.000592z"/>
    <g transform="translate(0 30.002)">
      <mask id="f" fill="#fff">
        <use xlink:href="#e"/>
      </mask>
      <path fill="#F98919" d="M25.412392.089267L1.498226.090463C1.488156.089865 1.478088.089865 1.46802.089865.576012.089865-.013328.69255.000295 1.61571v9.129368c.116684 8.34731 7.28353 14.91108 15.750477 14.963696v.001196c8.32894-.187742 15.443072-6.70368 15.55798-14.963696v-5.07918h-5.8934l.000593 4.59428c-.062784 5.34106-4.309585 9.642368-9.665173 9.812172h-.001185c-5.475825-.055007-9.79548-4.492636-9.858855-9.90604v-3.72015c0-.481312.28845-.777273.7694-.777273l18.75226-.004185V.089268zm-.431788.436468V5.22943l-18.320472.004784c-.71846 0-1.20178.48729-1.20178 1.213144l.000593 3.725528c.031984 2.743175 1.10642 5.32372 3.026068 7.265108 1.921425 1.944378 4.485498 3.033755 7.223114 3.071423l.01007.001794.0462-.00179c5.588954-.17698 10.018184-4.67619 10.083337-10.24864l-.000594-4.15721h5.029236v4.63613c-.053307 3.83913-1.67325 7.46062-4.561905 10.19722-2.84541 2.69594-6.58047 4.23435-10.52282 4.33539h-.0385c-4.01521-.02511-7.82075-1.53601-10.71473-4.25407C2.12252 18.27925.48658 14.62846.43209 10.74508V1.609134C.427347 1.27431.522117.99748.70632.808544c.18065-.184753.443633-.28221.7617-.28221h.030206l23.482378-.0006z" mask="url(#f)"/>
    </g>
    <path fill="#F98919" d="M15.750654 50.075805c5.35559-.169804 9.602982-4.471112 9.665173-9.81277l-.000592-4.59368h5.893398v5.07858c-.114906 8.260615-7.229037 14.776552-15.55798 14.963695v-.001196C7.283708 55.65782.116863 49.094648.00018 40.747337V31.61797c-.013623-.933924.58934-1.539598 1.49793-1.525847l23.914166-.000598v5.576035l-18.751668.004784c-.48154 0-.769992.29596-.769992.777272v3.720147c.063377 5.412808 4.38303 9.851035 9.859448 9.906042h.000592z"/>
  </g>
</svg>
