<svg xmlns="http://www.w3.org/2000/svg" width="156" height="72" viewBox="0 0 156 72" xmlns:xlink="http://www.w3.org/1999/xlink">
  <defs>
    <polygon id="a" points=".008 .107 .008 15.989 6.55 15.989 6.55 .107 .008 .107"/>
  </defs>
  <g fill="none" fill-rule="evenodd">
    <g transform="translate(0 25)">
      <g transform="translate(0 7.059)">
        <mask id="b" fill="white">
          <use xlink:href="#a"/>
        </mask>
        <path fill="#EC008B" d="M6.54990024,12.7347793 C6.54990024,14.5148782 5.09436686,15.9890601 3.27495012,15.9890601 C1.45553339,15.9890601 0,14.5148782 0,12.7347793 C0,10.9268455 1.45553339,9.48049848 3.27495012,9.48049848 C5.09436686,9.48049848 6.54990024,10.9268455 6.54990024,12.7347793 Z M6.54990024,3.36135845 C6.54990024,5.14145738 5.09436686,6.61563927 3.27495012,6.61563927 C1.45553339,6.61563927 0,5.14145738 0,3.36135845 C0,1.55342466 1.45553339,0.107210807 3.27495012,0.107210807 C5.09436686,0.107210807 6.54990024,1.55342466 6.54990024,3.36135845 L6.54990024,3.36135845 Z" mask="url(#b)"/>
      </g>
      <path fill="#EC008B" d="M12.7077715.518207763C15.4509024 4.27311644 16.7665116 9.94716514 16.7665116 14.5364536 16.7665116 19.2370814 15.6468499 25.3560883 12.7077715 29.1666667L9.65691451 27.4422374C11.8961039 24.0767504 12.8758413 18.8476598 12.8758413 14.8702055 12.8758413 10.5869673 11.9521272 5.9140411 9.65691451 2.24263699L12.7077715.518207763M39.1873549 8.89716514L39.1313316 8.89716514 36.8642646 15.5724696 41.4265442 15.5724696 39.1873549 8.89716514zM35.3527079 19.7446347L33.8971746 23.388204 28.075175 23.388204 36.1922532 2.41643836 42.1824566 2.41643836 50.1317329 23.388204 44.2817217 23.388204 42.9100893 19.7446347 35.3527079 19.7446347 35.3527079 19.7446347zM69.2784302 4.41908295C69.9501736 4.41908295 70.4821269 4.64162861 71.0698353 4.89187595L71.0698353.525133181C70.3702143.163546423 69.6703252.0245053272 68.8866693.0245053272 66.95534.0245053272 65.1359232.831050228 63.8763374 2.30523212 62.4766932 3.89062024 62.420804 5.33696728 62.420804 7.31177702L62.420804 9.11957763 57.5499942 9.11957763 57.5499942 6.81101598C57.5499942 5.19792618 57.9979125 4.41908295 59.3135216 4.41908295 59.985131 4.41908295 60.5170842 4.64162861 61.1049267 4.89187595L61.1049267.525133181C60.4051717.163546423 59.7052826.0245053272 58.9216267.0245053272 56.9902974.0245053272 55.1710147.831050228 53.9112947 2.30523212 52.5116506 3.89062024 52.4557613 5.33696728 52.4557613 7.31177702L52.4557613 9.11957763 50.6643563 9.11957763 50.6643563 13.2917428 52.4557613 13.2917428 52.4557613 23.388204 57.5499942 23.388204 57.5499942 13.2917428 62.420804 13.2917428 62.420804 23.388204 67.5150368 23.388204 67.5150368 13.2917428 71.0698353 13.2917428 71.0698353 9.11957763 67.5150368 9.11957763 67.5150368 6.81101598C67.5150368 5.19792618 67.9628211 4.41908295 69.2784302 4.41908295M83.0220965 14.1817922C82.7701257 12.8189498 81.5106739 11.9287671 80.1390414 11.9287671 78.6554963 11.9287671 77.4237881 12.7076104 77.116062 14.1817922L83.0220965 14.1817922zM87.752446 17.1023212L77.0320271 17.1023212C77.0320271 19.1605023 78.1238112 20.2729642 80.2229423 20.2729642 81.3147264 20.2729642 82.0983823 19.9115107 82.6580791 18.9657915L87.5564985 18.9657915C87.1647375 20.6346842 86.1569884 21.8584855 84.8415132 22.6650304 83.5259041 23.4717085 81.9024348 23.8611301 80.2509539 23.8611301 75.4924588 23.8611301 71.9376603 21.1909817 71.9376603 16.2678082 71.9376603 11.511777 75.2126104 8.64678463 79.8872046 8.64678463 84.8695249 8.64678463 87.752446 11.7063546 87.752446 16.5737253L87.752446 17.1023212 87.752446 17.1023212zM100.656701 13.7645358C99.9009227 13.2083714 99.0053542 12.7632801 98.0254827 12.7632801 96.0661418 12.7632801 94.5267075 14.2652968 94.5267075 16.2399734 94.5267075 18.2982877 96.0102525 19.7446347 98.1095176 19.7446347 99.0053542 19.7446347 99.9848236 19.3830479 100.656701 18.7710807L100.656701 23.0544521C99.5370394 23.6107496 98.3053311 23.8611301 97.0738909 23.8611301 92.8192033 23.8611301 89.2644048 20.7180556 89.2644048 16.4068493 89.2644048 11.8175609 92.7911916 8.64678463 97.29785 8.64678463 98.473535 8.64678463 99.6489519 8.925 100.656701 9.48116438L100.656701 13.7645358"/>
      <polyline fill="#EC008B" points="109.614 23.388 104.52 23.388 104.52 13.292 102.868 13.292 102.868 9.12 104.52 9.12 104.52 4.836 109.614 4.836 109.614 9.12 112.497 9.12 112.497 13.292 109.614 13.292 109.614 23.388"/>
      <path fill="#EC008B" d="M114.372222,23.388204 L119.466589,23.388204 L119.466589,9.11957763 L114.372222,9.11957763 L114.372222,23.388204 Z M119.774449,3.64037291 C119.774449,5.19792618 118.486851,6.47726408 116.919271,6.47726408 C115.351825,6.47726408 114.064362,5.19792618 114.064362,3.64037291 C114.064362,2.08268645 115.351825,0.803348554 116.919271,0.803348554 C118.486851,0.803348554 119.774449,2.08268645 119.774449,3.64037291 L119.774449,3.64037291 Z"/>
      <polyline fill="#EC008B" points="130.103 16.435 133.518 9.12 139.229 9.12 131.727 23.388 128.48 23.388 120.95 9.12 126.66 9.12 130.103 16.435"/>
      <path fill="#EC008B" d="M144.036153,16.2678082 C144.036153,18.075742 145.239716,19.4665525 147.310433,19.4665525 C149.382491,19.4665525 150.586053,18.075742 150.586053,16.2678082 C150.586053,14.5155441 149.382491,13.0413623 147.310433,13.0413623 C145.239716,13.0413623 144.036153,14.5155441 144.036153,16.2678082 Z M155.512886,23.388204 L150.418519,23.388204 L150.418519,21.8028158 L150.362228,21.8028158 C149.465587,23.221328 147.703132,23.8611301 146.023774,23.8611301 C141.768416,23.8611301 138.774252,20.3287671 138.774252,16.2399734 C138.774252,12.1513128 141.713465,8.64678463 145.967482,8.64678463 C147.618695,8.64678463 149.354345,9.2587519 150.418519,10.5103881 L150.418519,9.11957763 L155.512886,9.11957763 L155.512886,23.388204 L155.512886,23.388204 Z"/>
    </g>
    <rect width="156" height="72"/>
  </g>
</svg>
